<svg width="173" height="22" viewBox="0 0 173 22" fill="none" xmlns="http://www.w3.org/2000/svg">
<g id="custommike?">
<mask id="path-1-outside-1_660_1341" maskUnits="userSpaceOnUse" x="0" y="0" width="173" height="22" fill="black">
<rect fill="white" width="173" height="22"/>
<path d="M14.9478 16.7961C14.7002 17.4438 14.3679 18.0242 13.9508 18.5373C13.5403 19.0439 13.0549 19.4736 12.4945 19.8264C11.9406 20.1727 11.3151 20.4388 10.6178 20.6248C9.92712 20.8108 9.17776 20.9038 8.36976 20.9038C7.15124 20.9038 6.07934 20.7242 5.15404 20.3651C4.23527 20.0059 3.46636 19.5057 2.84733 18.8644C2.23481 18.223 1.77216 17.463 1.45939 16.5844C1.15313 15.6994 1 14.7342 1 13.6888C1 12.6434 1.14987 11.6654 1.44961 10.7547C1.74936 9.83758 2.20549 9.03912 2.81801 8.35931C3.43052 7.67949 4.20269 7.14398 5.1345 6.75277C6.07282 6.36155 7.17731 6.16595 8.44796 6.16595C9.14518 6.16595 9.80983 6.23649 10.4419 6.37759C11.0805 6.51868 11.6702 6.73353 12.211 7.02213C12.7584 7.30431 13.2504 7.66667 13.6869 8.10919C14.1235 8.54529 14.4917 9.06157 14.7914 9.65801C14.9022 9.88889 14.9576 10.1358 14.9576 10.3987C14.9576 10.6296 14.912 10.8509 14.8207 11.0625C14.736 11.2742 14.6122 11.4634 14.4493 11.6301C14.2929 11.7904 14.1007 11.9219 13.8727 12.0245C13.6511 12.1207 13.4067 12.1688 13.1396 12.1688C12.6965 12.1688 12.3251 12.0598 12.0253 11.8418C11.7321 11.6237 11.4812 11.3447 11.2727 11.0048C10.986 10.5366 10.6081 10.1775 10.1389 9.92737C9.66973 9.67725 9.09631 9.55219 8.41863 9.55219C7.78005 9.55219 7.24247 9.66763 6.80589 9.89851C6.36931 10.123 6.01743 10.4276 5.75027 10.8124C5.48311 11.1908 5.29088 11.6301 5.17359 12.1304C5.0563 12.6306 4.99766 13.1501 4.99766 13.6888C4.99766 14.1698 5.05956 14.6412 5.18337 15.1029C5.30717 15.5647 5.50266 15.9751 5.76982 16.3343C6.03698 16.687 6.3856 16.9724 6.81566 17.1905C7.24573 17.4085 7.76376 17.5176 8.36976 17.5176C8.71512 17.5176 9.04744 17.463 9.36673 17.354C9.69254 17.245 9.99228 17.0975 10.266 16.9115C10.5396 16.7191 10.784 16.501 10.999 16.2573C11.2141 16.0072 11.3867 15.7411 11.5171 15.4589C11.68 15.119 11.9113 14.8368 12.211 14.6123C12.5108 14.3814 12.8724 14.266 13.296 14.266C13.5501 14.266 13.7879 14.3173 14.0095 14.4199C14.231 14.5161 14.4233 14.6476 14.5862 14.8143C14.7491 14.9811 14.8761 15.1735 14.9674 15.3915C15.0586 15.6096 15.1042 15.8373 15.1042 16.0746C15.1042 16.3247 15.0521 16.5652 14.9478 16.7961Z"/>
<path d="M30.6843 18.9798C30.6843 19.557 30.5442 20.022 30.264 20.3747C29.9903 20.721 29.5472 20.8942 28.9347 20.8942C28.3222 20.8942 27.8759 20.721 27.5957 20.3747C27.3155 20.022 27.1754 19.557 27.1754 18.9798V18.4892C26.8887 18.8419 26.5791 19.1658 26.2468 19.4608C25.9145 19.7558 25.5496 20.0091 25.1521 20.2208C24.7611 20.4324 24.3311 20.596 23.8619 20.7114C23.3993 20.8333 22.891 20.8942 22.3371 20.8942C21.9462 20.8942 21.5519 20.8589 21.1544 20.7884C20.757 20.7178 20.3725 20.6056 20.0011 20.4517C19.6362 20.2977 19.2908 20.0925 18.965 19.836C18.6457 19.5794 18.3655 19.2652 18.1244 18.8932C17.8899 18.5212 17.7041 18.0883 17.5673 17.5945C17.4305 17.0943 17.362 16.5203 17.362 15.8725V8.23425C17.362 7.97771 17.3914 7.73401 17.45 7.50313C17.5087 7.27225 17.6097 7.07023 17.753 6.89707C17.9029 6.72391 18.1016 6.58602 18.3492 6.48341C18.6034 6.38079 18.9194 6.32949 19.2973 6.32949C19.6753 6.32949 19.9881 6.38079 20.2357 6.48341C20.4898 6.58602 20.6918 6.72391 20.8417 6.89707C20.9981 7.07023 21.1056 7.27225 21.1642 7.50313C21.2294 7.73401 21.262 7.97771 21.262 8.23425V15.1126C21.262 15.4974 21.3141 15.8533 21.4183 16.1804C21.5226 16.501 21.679 16.78 21.8875 17.0173C22.1025 17.2482 22.3664 17.431 22.6792 17.5657C22.992 17.6939 23.3569 17.7581 23.7739 17.7581C24.1128 17.7581 24.4614 17.6907 24.8198 17.556C25.1782 17.4214 25.504 17.2257 25.7972 16.9692C26.0904 16.7127 26.3283 16.3984 26.5107 16.0265C26.6997 15.6481 26.7942 15.2216 26.7942 14.747V8.23425C26.7942 7.97771 26.8235 7.73401 26.8821 7.50313C26.9473 7.27225 27.0548 7.07023 27.2047 6.89707C27.3546 6.72391 27.5533 6.58602 27.8009 6.48341C28.055 6.38079 28.3711 6.32949 28.749 6.32949C29.127 6.32949 29.4397 6.38079 29.6873 6.48341C29.9415 6.58602 30.1402 6.72391 30.2836 6.89707C30.4334 7.07023 30.5377 7.27225 30.5963 7.50313C30.655 7.73401 30.6843 7.97771 30.6843 8.23425V18.9798Z"/>
<path d="M33.4993 18.2775C33.3168 17.9953 33.2256 17.6811 33.2256 17.3348C33.2256 17.0911 33.268 16.873 33.3527 16.6806C33.4374 16.4818 33.5514 16.3151 33.6948 16.1804C33.8446 16.0393 34.0141 15.9335 34.203 15.8629C34.392 15.786 34.5907 15.7475 34.7993 15.7475C34.9882 15.7475 35.1544 15.7731 35.2977 15.8244C35.4476 15.8693 35.5845 15.9367 35.7083 16.0265C35.8321 16.1098 35.9494 16.2092 36.0601 16.3247C36.1774 16.4337 36.2947 16.5524 36.412 16.6806C36.5749 16.8538 36.7639 17.0173 36.9789 17.1712C37.1939 17.3252 37.435 17.4598 37.7022 17.5753C37.9759 17.6907 38.2724 17.7837 38.5917 17.8543C38.9109 17.9184 39.2563 17.9505 39.6277 17.9505C39.8102 17.9505 40.0285 17.9312 40.2826 17.8927C40.5367 17.8543 40.7778 17.7837 41.0059 17.6811C41.2405 17.5721 41.4392 17.4246 41.6021 17.2386C41.765 17.0526 41.8465 16.8153 41.8465 16.5267C41.8465 16.2445 41.7618 16.0072 41.5923 15.8148C41.4294 15.616 41.1786 15.4428 40.8397 15.2953C40.5074 15.1478 40.0839 15.0131 39.5691 14.8913C39.0608 14.763 38.4613 14.6251 37.7706 14.4776C37.2102 14.3558 36.6596 14.2051 36.1188 14.0255C35.5844 13.8459 35.1055 13.6086 34.682 13.3136C34.2649 13.0122 33.9261 12.637 33.6654 12.1881C33.4113 11.7327 33.2843 11.1716 33.2843 10.5046C33.2843 9.9915 33.3592 9.52974 33.5091 9.11929C33.6654 8.70883 33.8772 8.34648 34.1444 8.03223C34.4115 7.71797 34.7308 7.44861 35.1023 7.22415C35.4737 6.99327 35.8777 6.80728 36.3143 6.66619C36.7508 6.51868 37.2135 6.41286 37.7022 6.34873C38.1909 6.27818 38.6861 6.24291 39.1879 6.24291C39.7222 6.24291 40.2598 6.28138 40.8006 6.35835C41.348 6.42889 41.866 6.54433 42.3547 6.70467C42.8434 6.865 43.2898 7.07343 43.6938 7.32997C44.0978 7.5865 44.4334 7.89755 44.7005 8.26311C44.8048 8.4042 44.883 8.55812 44.9351 8.72487C44.9938 8.89161 45.0231 9.06798 45.0231 9.25397C45.0231 9.43354 44.9873 9.60991 44.9156 9.78307C44.8439 9.95623 44.7429 10.1101 44.6126 10.2448C44.4888 10.3795 44.3389 10.4885 44.163 10.5719C43.987 10.6489 43.7948 10.6873 43.5863 10.6873C43.2474 10.6873 42.9477 10.6104 42.6871 10.4565C42.4329 10.3025 42.1886 10.1294 41.954 9.93699C41.5956 9.64198 41.1721 9.42713 40.6833 9.29245C40.1946 9.15777 39.7059 9.09043 39.2172 9.09043C39.0282 9.09043 38.8132 9.10646 38.5721 9.13853C38.3375 9.17059 38.116 9.23152 37.9075 9.32131C37.6989 9.40468 37.523 9.52333 37.3797 9.67725C37.2428 9.82475 37.1744 10.0139 37.1744 10.2448C37.1744 10.5527 37.2917 10.7964 37.5263 10.976C37.7674 11.1555 38.0834 11.3062 38.4744 11.4281C38.8718 11.5499 39.328 11.6558 39.8428 11.7456C40.3575 11.8353 40.8886 11.9444 41.436 12.0726C42.0094 12.2009 42.5535 12.3644 43.0682 12.5633C43.5895 12.7557 44.0457 13.0058 44.4366 13.3136C44.8341 13.6215 45.1469 13.9998 45.375 14.4488C45.6095 14.8977 45.7268 15.4428 45.7268 16.0842C45.7268 16.6934 45.6421 17.2354 45.4727 17.71C45.3033 18.1845 45.0687 18.5982 44.769 18.9509C44.4692 19.3037 44.1108 19.6019 43.6938 19.8456C43.2833 20.0893 42.8369 20.2881 42.3547 20.442C41.8791 20.5895 41.3741 20.6954 40.8397 20.7595C40.3119 20.83 39.7776 20.8653 39.2368 20.8653C38.6503 20.8653 38.0736 20.8108 37.5067 20.7018C36.9463 20.5992 36.4153 20.442 35.9135 20.2304C35.4183 20.0123 34.9622 19.743 34.5451 19.4223C34.1346 19.0952 33.786 18.7136 33.4993 18.2775Z"/>
<path d="M48.9035 9.23473H48.2388C47.6915 9.23473 47.2972 9.11608 47.0561 8.87879C46.815 8.63508 46.6945 8.30159 46.6945 7.87831C46.6945 7.45503 46.815 7.12474 47.0561 6.88745C47.2972 6.64374 47.6915 6.52189 48.2388 6.52189H48.9035V4.11688C48.9035 3.49479 49.0794 3.02341 49.4313 2.70274C49.7897 2.37566 50.2621 2.21212 50.8485 2.21212C51.4285 2.21212 51.8944 2.37566 52.2462 2.70274C52.6046 3.02341 52.7838 3.49479 52.7838 4.11688V6.52189H53.9567C54.5302 6.52189 54.9635 6.63412 55.2567 6.85859C55.5564 7.07664 55.7063 7.41655 55.7063 7.87831C55.7063 8.34007 55.5564 8.68318 55.2567 8.90765C54.9635 9.1257 54.5302 9.23473 53.9567 9.23473H52.7838V16.5652C52.7838 17.1552 53.1227 17.4502 53.8003 17.4502H54.3575C54.5725 17.4502 54.7615 17.4887 54.9244 17.5657C55.0938 17.6426 55.2339 17.7484 55.3447 17.8831C55.462 18.0178 55.5499 18.1749 55.6086 18.3545C55.6737 18.5341 55.7063 18.7265 55.7063 18.9317C55.7063 19.4832 55.4717 19.9194 55.0026 20.24C54.5334 20.5607 53.8297 20.721 52.8913 20.721C52.1876 20.721 51.5816 20.6505 51.0733 20.5094C50.5716 20.3683 50.1578 20.1566 49.832 19.8745C49.5127 19.5859 49.2781 19.2299 49.1283 18.8066C48.9784 18.3834 48.9035 17.8895 48.9035 17.3252V9.23473Z"/>
<path d="M56.3123 13.5349C56.3123 12.419 56.4915 11.4024 56.8499 10.4853C57.2148 9.56822 57.7231 8.78259 58.3747 8.12843C59.0328 7.47427 59.8115 6.96761 60.7107 6.60847C61.6165 6.24932 62.6134 6.06975 63.7016 6.06975C64.4314 6.06975 65.1222 6.15312 65.7738 6.31987C66.4254 6.4802 67.0249 6.71429 67.5722 7.02213C68.1261 7.32355 68.6213 7.69553 69.0579 8.13805C69.501 8.57415 69.8757 9.06798 70.1819 9.61953C70.4947 10.1711 70.7326 10.7771 70.8955 11.4377C71.0584 12.0919 71.1398 12.7909 71.1398 13.5349C71.1398 14.2788 71.0584 14.9811 70.8955 15.6417C70.7326 16.2958 70.4947 16.8987 70.1819 17.4502C69.8757 18.0018 69.501 18.4988 69.0579 18.9413C68.6213 19.3774 68.1261 19.7494 67.5722 20.0572C67.0249 20.3587 66.4254 20.5895 65.7738 20.7499C65.1222 20.9166 64.4314 21 63.7016 21C62.6134 21 61.6165 20.8204 60.7107 20.4613C59.8115 20.1021 59.0328 19.5955 58.3747 18.9413C57.7231 18.2872 57.2148 17.5015 56.8499 16.5844C56.4915 15.6673 56.3123 14.6508 56.3123 13.5349ZM60.2318 13.5349C60.2318 14.0928 60.2872 14.6412 60.3979 15.1799C60.5152 15.7186 60.7075 16.1964 60.9746 16.6133C61.2418 17.0301 61.5969 17.3668 62.04 17.6234C62.4896 17.8799 63.0435 18.0082 63.7016 18.0082C64.3728 18.0082 64.9364 17.8799 65.3926 17.6234C65.8487 17.3668 66.2136 17.0301 66.4873 16.6133C66.7675 16.1964 66.9662 15.7186 67.0835 15.1799C67.2008 14.6412 67.2594 14.0928 67.2594 13.5349C67.2594 12.9769 67.1943 12.4286 67.064 11.8899C66.9401 11.3511 66.7349 10.8733 66.4482 10.4565C66.168 10.0396 65.7998 9.7029 65.3437 9.44637C64.8941 9.18983 64.3467 9.06157 63.7016 9.06157C63.063 9.06157 62.5222 9.18983 62.0791 9.44637C61.6425 9.7029 61.2874 10.0396 61.0137 10.4565C60.74 10.8733 60.5413 11.3511 60.4175 11.8899C60.2937 12.4286 60.2318 12.9769 60.2318 13.5349Z"/>
<path d="M73.1729 8.17653C73.1729 7.59291 73.3325 7.12474 73.6518 6.77201C73.9776 6.41927 74.4272 6.24291 75.0006 6.24291C75.5741 6.24291 76.0237 6.41927 76.3495 6.77201C76.6753 7.12474 76.8382 7.59291 76.8382 8.17653V8.58057H76.8968C77.4051 7.81097 78.0632 7.23056 78.8712 6.83935C79.6792 6.44172 80.5785 6.24291 81.5689 6.24291C81.9012 6.24291 82.2466 6.2878 82.605 6.37759C82.9634 6.46096 83.3087 6.59885 83.641 6.79125C83.9734 6.98365 84.2796 7.23697 84.5598 7.55123C84.84 7.85907 85.0681 8.24066 85.244 8.69601C85.5177 8.31762 85.8142 7.97771 86.1335 7.67629C86.4528 7.37486 86.8014 7.11833 87.1793 6.90669C87.5572 6.69505 87.9678 6.53151 88.4109 6.41607C88.854 6.30063 89.3394 6.24291 89.8672 6.24291C90.5384 6.24291 91.177 6.32628 91.783 6.49303C92.389 6.65336 92.92 6.91951 93.3762 7.29149C93.8323 7.65705 94.1939 8.13805 94.4611 8.73449C94.7348 9.33093 94.8716 10.062 94.8716 10.9278V18.7874C94.8716 19.0439 94.839 19.2908 94.7739 19.5281C94.7152 19.759 94.611 19.9642 94.4611 20.1438C94.3177 20.317 94.119 20.4549 93.8649 20.5575C93.6173 20.6601 93.3045 20.7114 92.9266 20.7114C92.5486 20.7114 92.2326 20.6601 91.9785 20.5575C91.7308 20.4549 91.5321 20.317 91.3822 20.1438C91.2389 19.9642 91.1379 19.759 91.0792 19.5281C91.0206 19.2908 90.9913 19.0439 90.9913 18.7874V11.8514C90.9913 11.5051 90.9424 11.1748 90.8446 10.8605C90.7469 10.5463 90.6003 10.2673 90.4048 10.0236C90.2158 9.77986 89.978 9.58746 89.6913 9.44637C89.4046 9.29886 89.0722 9.22511 88.6943 9.22511C88.3229 9.22511 87.971 9.30848 87.6387 9.47523C87.3064 9.63556 87.0164 9.86003 86.7688 10.1486C86.5212 10.4308 86.3224 10.7675 86.1726 11.1587C86.0292 11.5435 85.9575 11.9604 85.9575 12.4093V18.7874C85.9575 19.0439 85.9249 19.2908 85.8598 19.5281C85.8011 19.759 85.6969 19.9642 85.547 20.1438C85.4037 20.317 85.2049 20.4549 84.9508 20.5575C84.7032 20.6601 84.3904 20.7114 84.0125 20.7114C83.6345 20.7114 83.3185 20.6601 83.0644 20.5575C82.8167 20.4549 82.618 20.317 82.4681 20.1438C82.3248 19.9642 82.2238 19.759 82.1651 19.5281C82.1065 19.2908 82.0772 19.0439 82.0772 18.7874V11.8514C82.0772 11.5051 82.0315 11.1748 81.9403 10.8605C81.8556 10.5463 81.722 10.2673 81.5396 10.0236C81.3571 9.77986 81.1258 9.58746 80.8456 9.44637C80.5719 9.29886 80.2461 9.22511 79.8682 9.22511C79.4968 9.22511 79.1416 9.30848 78.8028 9.47523C78.464 9.63556 78.1642 9.86003 77.9036 10.1486C77.6429 10.4308 77.4344 10.7675 77.278 11.1587C77.1282 11.5435 77.0532 11.9604 77.0532 12.4093V18.7874C77.0532 19.0439 77.0206 19.2908 76.9555 19.5281C76.8968 19.759 76.7926 19.9642 76.6427 20.1438C76.4993 20.317 76.3006 20.4549 76.0465 20.5575C75.7989 20.6601 75.4861 20.7114 75.1081 20.7114C74.7302 20.7114 74.4142 20.6601 74.16 20.5575C73.9124 20.4549 73.7137 20.317 73.5638 20.1438C73.4205 19.9642 73.3195 19.759 73.2608 19.5281C73.2022 19.2908 73.1729 19.0439 73.1729 18.7874V8.17653Z"/>
</mask>
<path d="M14.9478 16.7961C14.7002 17.4438 14.3679 18.0242 13.9508 18.5373C13.5403 19.0439 13.0549 19.4736 12.4945 19.8264C11.9406 20.1727 11.3151 20.4388 10.6178 20.6248C9.92712 20.8108 9.17776 20.9038 8.36976 20.9038C7.15124 20.9038 6.07934 20.7242 5.15404 20.3651C4.23527 20.0059 3.46636 19.5057 2.84733 18.8644C2.23481 18.223 1.77216 17.463 1.45939 16.5844C1.15313 15.6994 1 14.7342 1 13.6888C1 12.6434 1.14987 11.6654 1.44961 10.7547C1.74936 9.83758 2.20549 9.03912 2.81801 8.35931C3.43052 7.67949 4.20269 7.14398 5.1345 6.75277C6.07282 6.36155 7.17731 6.16595 8.44796 6.16595C9.14518 6.16595 9.80983 6.23649 10.4419 6.37759C11.0805 6.51868 11.6702 6.73353 12.211 7.02213C12.7584 7.30431 13.2504 7.66667 13.6869 8.10919C14.1235 8.54529 14.4917 9.06157 14.7914 9.65801C14.9022 9.88889 14.9576 10.1358 14.9576 10.3987C14.9576 10.6296 14.912 10.8509 14.8207 11.0625C14.736 11.2742 14.6122 11.4634 14.4493 11.6301C14.2929 11.7904 14.1007 11.9219 13.8727 12.0245C13.6511 12.1207 13.4067 12.1688 13.1396 12.1688C12.6965 12.1688 12.3251 12.0598 12.0253 11.8418C11.7321 11.6237 11.4812 11.3447 11.2727 11.0048C10.986 10.5366 10.6081 10.1775 10.1389 9.92737C9.66973 9.67725 9.09631 9.55219 8.41863 9.55219C7.78005 9.55219 7.24247 9.66763 6.80589 9.89851C6.36931 10.123 6.01743 10.4276 5.75027 10.8124C5.48311 11.1908 5.29088 11.6301 5.17359 12.1304C5.0563 12.6306 4.99766 13.1501 4.99766 13.6888C4.99766 14.1698 5.05956 14.6412 5.18337 15.1029C5.30717 15.5647 5.50266 15.9751 5.76982 16.3343C6.03698 16.687 6.3856 16.9724 6.81566 17.1905C7.24573 17.4085 7.76376 17.5176 8.36976 17.5176C8.71512 17.5176 9.04744 17.463 9.36673 17.354C9.69254 17.245 9.99228 17.0975 10.266 16.9115C10.5396 16.7191 10.784 16.501 10.999 16.2573C11.2141 16.0072 11.3867 15.7411 11.5171 15.4589C11.68 15.119 11.9113 14.8368 12.211 14.6123C12.5108 14.3814 12.8724 14.266 13.296 14.266C13.5501 14.266 13.7879 14.3173 14.0095 14.4199C14.231 14.5161 14.4233 14.6476 14.5862 14.8143C14.7491 14.9811 14.8761 15.1735 14.9674 15.3915C15.0586 15.6096 15.1042 15.8373 15.1042 16.0746C15.1042 16.3247 15.0521 16.5652 14.9478 16.7961Z" fill="#2D2D2D"/>
<path d="M30.6843 18.9798C30.6843 19.557 30.5442 20.022 30.264 20.3747C29.9903 20.721 29.5472 20.8942 28.9347 20.8942C28.3222 20.8942 27.8759 20.721 27.5957 20.3747C27.3155 20.022 27.1754 19.557 27.1754 18.9798V18.4892C26.8887 18.8419 26.5791 19.1658 26.2468 19.4608C25.9145 19.7558 25.5496 20.0091 25.1521 20.2208C24.7611 20.4324 24.3311 20.596 23.8619 20.7114C23.3993 20.8333 22.891 20.8942 22.3371 20.8942C21.9462 20.8942 21.5519 20.8589 21.1544 20.7884C20.757 20.7178 20.3725 20.6056 20.0011 20.4517C19.6362 20.2977 19.2908 20.0925 18.965 19.836C18.6457 19.5794 18.3655 19.2652 18.1244 18.8932C17.8899 18.5212 17.7041 18.0883 17.5673 17.5945C17.4305 17.0943 17.362 16.5203 17.362 15.8725V8.23425C17.362 7.97771 17.3914 7.73401 17.45 7.50313C17.5087 7.27225 17.6097 7.07023 17.753 6.89707C17.9029 6.72391 18.1016 6.58602 18.3492 6.48341C18.6034 6.38079 18.9194 6.32949 19.2973 6.32949C19.6753 6.32949 19.9881 6.38079 20.2357 6.48341C20.4898 6.58602 20.6918 6.72391 20.8417 6.89707C20.9981 7.07023 21.1056 7.27225 21.1642 7.50313C21.2294 7.73401 21.262 7.97771 21.262 8.23425V15.1126C21.262 15.4974 21.3141 15.8533 21.4183 16.1804C21.5226 16.501 21.679 16.78 21.8875 17.0173C22.1025 17.2482 22.3664 17.431 22.6792 17.5657C22.992 17.6939 23.3569 17.7581 23.7739 17.7581C24.1128 17.7581 24.4614 17.6907 24.8198 17.556C25.1782 17.4214 25.504 17.2257 25.7972 16.9692C26.0904 16.7127 26.3283 16.3984 26.5107 16.0265C26.6997 15.6481 26.7942 15.2216 26.7942 14.747V8.23425C26.7942 7.97771 26.8235 7.73401 26.8821 7.50313C26.9473 7.27225 27.0548 7.07023 27.2047 6.89707C27.3546 6.72391 27.5533 6.58602 27.8009 6.48341C28.055 6.38079 28.3711 6.32949 28.749 6.32949C29.127 6.32949 29.4397 6.38079 29.6873 6.48341C29.9415 6.58602 30.1402 6.72391 30.2836 6.89707C30.4334 7.07023 30.5377 7.27225 30.5963 7.50313C30.655 7.73401 30.6843 7.97771 30.6843 8.23425V18.9798Z" fill="#2D2D2D"/>
<path d="M33.4993 18.2775C33.3168 17.9953 33.2256 17.6811 33.2256 17.3348C33.2256 17.0911 33.268 16.873 33.3527 16.6806C33.4374 16.4818 33.5514 16.3151 33.6948 16.1804C33.8446 16.0393 34.0141 15.9335 34.203 15.8629C34.392 15.786 34.5907 15.7475 34.7993 15.7475C34.9882 15.7475 35.1544 15.7731 35.2977 15.8244C35.4476 15.8693 35.5845 15.9367 35.7083 16.0265C35.8321 16.1098 35.9494 16.2092 36.0601 16.3247C36.1774 16.4337 36.2947 16.5524 36.412 16.6806C36.5749 16.8538 36.7639 17.0173 36.9789 17.1712C37.1939 17.3252 37.435 17.4598 37.7022 17.5753C37.9759 17.6907 38.2724 17.7837 38.5917 17.8543C38.9109 17.9184 39.2563 17.9505 39.6277 17.9505C39.8102 17.9505 40.0285 17.9312 40.2826 17.8927C40.5367 17.8543 40.7778 17.7837 41.0059 17.6811C41.2405 17.5721 41.4392 17.4246 41.6021 17.2386C41.765 17.0526 41.8465 16.8153 41.8465 16.5267C41.8465 16.2445 41.7618 16.0072 41.5923 15.8148C41.4294 15.616 41.1786 15.4428 40.8397 15.2953C40.5074 15.1478 40.0839 15.0131 39.5691 14.8913C39.0608 14.763 38.4613 14.6251 37.7706 14.4776C37.2102 14.3558 36.6596 14.2051 36.1188 14.0255C35.5844 13.8459 35.1055 13.6086 34.682 13.3136C34.2649 13.0122 33.9261 12.637 33.6654 12.1881C33.4113 11.7327 33.2843 11.1716 33.2843 10.5046C33.2843 9.9915 33.3592 9.52974 33.5091 9.11929C33.6654 8.70883 33.8772 8.34648 34.1444 8.03223C34.4115 7.71797 34.7308 7.44861 35.1023 7.22415C35.4737 6.99327 35.8777 6.80728 36.3143 6.66619C36.7508 6.51868 37.2135 6.41286 37.7022 6.34873C38.1909 6.27818 38.6861 6.24291 39.1879 6.24291C39.7222 6.24291 40.2598 6.28138 40.8006 6.35835C41.348 6.42889 41.866 6.54433 42.3547 6.70467C42.8434 6.865 43.2898 7.07343 43.6938 7.32997C44.0978 7.5865 44.4334 7.89755 44.7005 8.26311C44.8048 8.4042 44.883 8.55812 44.9351 8.72487C44.9938 8.89161 45.0231 9.06798 45.0231 9.25397C45.0231 9.43354 44.9873 9.60991 44.9156 9.78307C44.8439 9.95623 44.7429 10.1101 44.6126 10.2448C44.4888 10.3795 44.3389 10.4885 44.163 10.5719C43.987 10.6489 43.7948 10.6873 43.5863 10.6873C43.2474 10.6873 42.9477 10.6104 42.6871 10.4565C42.4329 10.3025 42.1886 10.1294 41.954 9.93699C41.5956 9.64198 41.1721 9.42713 40.6833 9.29245C40.1946 9.15777 39.7059 9.09043 39.2172 9.09043C39.0282 9.09043 38.8132 9.10646 38.5721 9.13853C38.3375 9.17059 38.116 9.23152 37.9075 9.32131C37.6989 9.40468 37.523 9.52333 37.3797 9.67725C37.2428 9.82475 37.1744 10.0139 37.1744 10.2448C37.1744 10.5527 37.2917 10.7964 37.5263 10.976C37.7674 11.1555 38.0834 11.3062 38.4744 11.4281C38.8718 11.5499 39.328 11.6558 39.8428 11.7456C40.3575 11.8353 40.8886 11.9444 41.436 12.0726C42.0094 12.2009 42.5535 12.3644 43.0682 12.5633C43.5895 12.7557 44.0457 13.0058 44.4366 13.3136C44.8341 13.6215 45.1469 13.9998 45.375 14.4488C45.6095 14.8977 45.7268 15.4428 45.7268 16.0842C45.7268 16.6934 45.6421 17.2354 45.4727 17.71C45.3033 18.1845 45.0687 18.5982 44.769 18.9509C44.4692 19.3037 44.1108 19.6019 43.6938 19.8456C43.2833 20.0893 42.8369 20.2881 42.3547 20.442C41.8791 20.5895 41.3741 20.6954 40.8397 20.7595C40.3119 20.83 39.7776 20.8653 39.2368 20.8653C38.6503 20.8653 38.0736 20.8108 37.5067 20.7018C36.9463 20.5992 36.4153 20.442 35.9135 20.2304C35.4183 20.0123 34.9622 19.743 34.5451 19.4223C34.1346 19.0952 33.786 18.7136 33.4993 18.2775Z" fill="#2D2D2D"/>
<path d="M48.9035 9.23473H48.2388C47.6915 9.23473 47.2972 9.11608 47.0561 8.87879C46.815 8.63508 46.6945 8.30159 46.6945 7.87831C46.6945 7.45503 46.815 7.12474 47.0561 6.88745C47.2972 6.64374 47.6915 6.52189 48.2388 6.52189H48.9035V4.11688C48.9035 3.49479 49.0794 3.02341 49.4313 2.70274C49.7897 2.37566 50.2621 2.21212 50.8485 2.21212C51.4285 2.21212 51.8944 2.37566 52.2462 2.70274C52.6046 3.02341 52.7838 3.49479 52.7838 4.11688V6.52189H53.9567C54.5302 6.52189 54.9635 6.63412 55.2567 6.85859C55.5564 7.07664 55.7063 7.41655 55.7063 7.87831C55.7063 8.34007 55.5564 8.68318 55.2567 8.90765C54.9635 9.1257 54.5302 9.23473 53.9567 9.23473H52.7838V16.5652C52.7838 17.1552 53.1227 17.4502 53.8003 17.4502H54.3575C54.5725 17.4502 54.7615 17.4887 54.9244 17.5657C55.0938 17.6426 55.2339 17.7484 55.3447 17.8831C55.462 18.0178 55.5499 18.1749 55.6086 18.3545C55.6737 18.5341 55.7063 18.7265 55.7063 18.9317C55.7063 19.4832 55.4717 19.9194 55.0026 20.24C54.5334 20.5607 53.8297 20.721 52.8913 20.721C52.1876 20.721 51.5816 20.6505 51.0733 20.5094C50.5716 20.3683 50.1578 20.1566 49.832 19.8745C49.5127 19.5859 49.2781 19.2299 49.1283 18.8066C48.9784 18.3834 48.9035 17.8895 48.9035 17.3252V9.23473Z" fill="#2D2D2D"/>
<path d="M56.3123 13.5349C56.3123 12.419 56.4915 11.4024 56.8499 10.4853C57.2148 9.56822 57.7231 8.78259 58.3747 8.12843C59.0328 7.47427 59.8115 6.96761 60.7107 6.60847C61.6165 6.24932 62.6134 6.06975 63.7016 6.06975C64.4314 6.06975 65.1222 6.15312 65.7738 6.31987C66.4254 6.4802 67.0249 6.71429 67.5722 7.02213C68.1261 7.32355 68.6213 7.69553 69.0579 8.13805C69.501 8.57415 69.8757 9.06798 70.1819 9.61953C70.4947 10.1711 70.7326 10.7771 70.8955 11.4377C71.0584 12.0919 71.1398 12.7909 71.1398 13.5349C71.1398 14.2788 71.0584 14.9811 70.8955 15.6417C70.7326 16.2958 70.4947 16.8987 70.1819 17.4502C69.8757 18.0018 69.501 18.4988 69.0579 18.9413C68.6213 19.3774 68.1261 19.7494 67.5722 20.0572C67.0249 20.3587 66.4254 20.5895 65.7738 20.7499C65.1222 20.9166 64.4314 21 63.7016 21C62.6134 21 61.6165 20.8204 60.7107 20.4613C59.8115 20.1021 59.0328 19.5955 58.3747 18.9413C57.7231 18.2872 57.2148 17.5015 56.8499 16.5844C56.4915 15.6673 56.3123 14.6508 56.3123 13.5349ZM60.2318 13.5349C60.2318 14.0928 60.2872 14.6412 60.3979 15.1799C60.5152 15.7186 60.7075 16.1964 60.9746 16.6133C61.2418 17.0301 61.5969 17.3668 62.04 17.6234C62.4896 17.8799 63.0435 18.0082 63.7016 18.0082C64.3728 18.0082 64.9364 17.8799 65.3926 17.6234C65.8487 17.3668 66.2136 17.0301 66.4873 16.6133C66.7675 16.1964 66.9662 15.7186 67.0835 15.1799C67.2008 14.6412 67.2594 14.0928 67.2594 13.5349C67.2594 12.9769 67.1943 12.4286 67.064 11.8899C66.9401 11.3511 66.7349 10.8733 66.4482 10.4565C66.168 10.0396 65.7998 9.7029 65.3437 9.44637C64.8941 9.18983 64.3467 9.06157 63.7016 9.06157C63.063 9.06157 62.5222 9.18983 62.0791 9.44637C61.6425 9.7029 61.2874 10.0396 61.0137 10.4565C60.74 10.8733 60.5413 11.3511 60.4175 11.8899C60.2937 12.4286 60.2318 12.9769 60.2318 13.5349Z" fill="#2D2D2D"/>
<path d="M73.1729 8.17653C73.1729 7.59291 73.3325 7.12474 73.6518 6.77201C73.9776 6.41927 74.4272 6.24291 75.0006 6.24291C75.5741 6.24291 76.0237 6.41927 76.3495 6.77201C76.6753 7.12474 76.8382 7.59291 76.8382 8.17653V8.58057H76.8968C77.4051 7.81097 78.0632 7.23056 78.8712 6.83935C79.6792 6.44172 80.5785 6.24291 81.5689 6.24291C81.9012 6.24291 82.2466 6.2878 82.605 6.37759C82.9634 6.46096 83.3087 6.59885 83.641 6.79125C83.9734 6.98365 84.2796 7.23697 84.5598 7.55123C84.84 7.85907 85.0681 8.24066 85.244 8.69601C85.5177 8.31762 85.8142 7.97771 86.1335 7.67629C86.4528 7.37486 86.8014 7.11833 87.1793 6.90669C87.5572 6.69505 87.9678 6.53151 88.4109 6.41607C88.854 6.30063 89.3394 6.24291 89.8672 6.24291C90.5384 6.24291 91.177 6.32628 91.783 6.49303C92.389 6.65336 92.92 6.91951 93.3762 7.29149C93.8323 7.65705 94.1939 8.13805 94.4611 8.73449C94.7348 9.33093 94.8716 10.062 94.8716 10.9278V18.7874C94.8716 19.0439 94.839 19.2908 94.7739 19.5281C94.7152 19.759 94.611 19.9642 94.4611 20.1438C94.3177 20.317 94.119 20.4549 93.8649 20.5575C93.6173 20.6601 93.3045 20.7114 92.9266 20.7114C92.5486 20.7114 92.2326 20.6601 91.9785 20.5575C91.7308 20.4549 91.5321 20.317 91.3822 20.1438C91.2389 19.9642 91.1379 19.759 91.0792 19.5281C91.0206 19.2908 90.9913 19.0439 90.9913 18.7874V11.8514C90.9913 11.5051 90.9424 11.1748 90.8446 10.8605C90.7469 10.5463 90.6003 10.2673 90.4048 10.0236C90.2158 9.77986 89.978 9.58746 89.6913 9.44637C89.4046 9.29886 89.0722 9.22511 88.6943 9.22511C88.3229 9.22511 87.971 9.30848 87.6387 9.47523C87.3064 9.63556 87.0164 9.86003 86.7688 10.1486C86.5212 10.4308 86.3224 10.7675 86.1726 11.1587C86.0292 11.5435 85.9575 11.9604 85.9575 12.4093V18.7874C85.9575 19.0439 85.9249 19.2908 85.8598 19.5281C85.8011 19.759 85.6969 19.9642 85.547 20.1438C85.4037 20.317 85.2049 20.4549 84.9508 20.5575C84.7032 20.6601 84.3904 20.7114 84.0125 20.7114C83.6345 20.7114 83.3185 20.6601 83.0644 20.5575C82.8167 20.4549 82.618 20.317 82.4681 20.1438C82.3248 19.9642 82.2238 19.759 82.1651 19.5281C82.1065 19.2908 82.0772 19.0439 82.0772 18.7874V11.8514C82.0772 11.5051 82.0315 11.1748 81.9403 10.8605C81.8556 10.5463 81.722 10.2673 81.5396 10.0236C81.3571 9.77986 81.1258 9.58746 80.8456 9.44637C80.5719 9.29886 80.2461 9.22511 79.8682 9.22511C79.4968 9.22511 79.1416 9.30848 78.8028 9.47523C78.464 9.63556 78.1642 9.86003 77.9036 10.1486C77.6429 10.4308 77.4344 10.7675 77.278 11.1587C77.1282 11.5435 77.0532 11.9604 77.0532 12.4093V18.7874C77.0532 19.0439 77.0206 19.2908 76.9555 19.5281C76.8968 19.759 76.7926 19.9642 76.6427 20.1438C76.4993 20.317 76.3006 20.4549 76.0465 20.5575C75.7989 20.6601 75.4861 20.7114 75.1081 20.7114C74.7302 20.7114 74.4142 20.6601 74.16 20.5575C73.9124 20.4549 73.7137 20.317 73.5638 20.1438C73.4205 19.9642 73.3195 19.759 73.2608 19.5281C73.2022 19.2908 73.1729 19.0439 73.1729 18.7874V8.17653Z" fill="#2D2D2D"/>
<path d="M14.9478 16.7961C14.7002 17.4438 14.3679 18.0242 13.9508 18.5373C13.5403 19.0439 13.0549 19.4736 12.4945 19.8264C11.9406 20.1727 11.3151 20.4388 10.6178 20.6248C9.92712 20.8108 9.17776 20.9038 8.36976 20.9038C7.15124 20.9038 6.07934 20.7242 5.15404 20.3651C4.23527 20.0059 3.46636 19.5057 2.84733 18.8644C2.23481 18.223 1.77216 17.463 1.45939 16.5844C1.15313 15.6994 1 14.7342 1 13.6888C1 12.6434 1.14987 11.6654 1.44961 10.7547C1.74936 9.83758 2.20549 9.03912 2.81801 8.35931C3.43052 7.67949 4.20269 7.14398 5.1345 6.75277C6.07282 6.36155 7.17731 6.16595 8.44796 6.16595C9.14518 6.16595 9.80983 6.23649 10.4419 6.37759C11.0805 6.51868 11.6702 6.73353 12.211 7.02213C12.7584 7.30431 13.2504 7.66667 13.6869 8.10919C14.1235 8.54529 14.4917 9.06157 14.7914 9.65801C14.9022 9.88889 14.9576 10.1358 14.9576 10.3987C14.9576 10.6296 14.912 10.8509 14.8207 11.0625C14.736 11.2742 14.6122 11.4634 14.4493 11.6301C14.2929 11.7904 14.1007 11.9219 13.8727 12.0245C13.6511 12.1207 13.4067 12.1688 13.1396 12.1688C12.6965 12.1688 12.3251 12.0598 12.0253 11.8418C11.7321 11.6237 11.4812 11.3447 11.2727 11.0048C10.986 10.5366 10.6081 10.1775 10.1389 9.92737C9.66973 9.67725 9.09631 9.55219 8.41863 9.55219C7.78005 9.55219 7.24247 9.66763 6.80589 9.89851C6.36931 10.123 6.01743 10.4276 5.75027 10.8124C5.48311 11.1908 5.29088 11.6301 5.17359 12.1304C5.0563 12.6306 4.99766 13.1501 4.99766 13.6888C4.99766 14.1698 5.05956 14.6412 5.18337 15.1029C5.30717 15.5647 5.50266 15.9751 5.76982 16.3343C6.03698 16.687 6.3856 16.9724 6.81566 17.1905C7.24573 17.4085 7.76376 17.5176 8.36976 17.5176C8.71512 17.5176 9.04744 17.463 9.36673 17.354C9.69254 17.245 9.99228 17.0975 10.266 16.9115C10.5396 16.7191 10.784 16.501 10.999 16.2573C11.2141 16.0072 11.3867 15.7411 11.5171 15.4589C11.68 15.119 11.9113 14.8368 12.211 14.6123C12.5108 14.3814 12.8724 14.266 13.296 14.266C13.5501 14.266 13.7879 14.3173 14.0095 14.4199C14.231 14.5161 14.4233 14.6476 14.5862 14.8143C14.7491 14.9811 14.8761 15.1735 14.9674 15.3915C15.0586 15.6096 15.1042 15.8373 15.1042 16.0746C15.1042 16.3247 15.0521 16.5652 14.9478 16.7961Z" stroke="#2D2D2D" mask="url(#path-1-outside-1_660_1341)"/>
<path d="M30.6843 18.9798C30.6843 19.557 30.5442 20.022 30.264 20.3747C29.9903 20.721 29.5472 20.8942 28.9347 20.8942C28.3222 20.8942 27.8759 20.721 27.5957 20.3747C27.3155 20.022 27.1754 19.557 27.1754 18.9798V18.4892C26.8887 18.8419 26.5791 19.1658 26.2468 19.4608C25.9145 19.7558 25.5496 20.0091 25.1521 20.2208C24.7611 20.4324 24.3311 20.596 23.8619 20.7114C23.3993 20.8333 22.891 20.8942 22.3371 20.8942C21.9462 20.8942 21.5519 20.8589 21.1544 20.7884C20.757 20.7178 20.3725 20.6056 20.0011 20.4517C19.6362 20.2977 19.2908 20.0925 18.965 19.836C18.6457 19.5794 18.3655 19.2652 18.1244 18.8932C17.8899 18.5212 17.7041 18.0883 17.5673 17.5945C17.4305 17.0943 17.362 16.5203 17.362 15.8725V8.23425C17.362 7.97771 17.3914 7.73401 17.45 7.50313C17.5087 7.27225 17.6097 7.07023 17.753 6.89707C17.9029 6.72391 18.1016 6.58602 18.3492 6.48341C18.6034 6.38079 18.9194 6.32949 19.2973 6.32949C19.6753 6.32949 19.9881 6.38079 20.2357 6.48341C20.4898 6.58602 20.6918 6.72391 20.8417 6.89707C20.9981 7.07023 21.1056 7.27225 21.1642 7.50313C21.2294 7.73401 21.262 7.97771 21.262 8.23425V15.1126C21.262 15.4974 21.3141 15.8533 21.4183 16.1804C21.5226 16.501 21.679 16.78 21.8875 17.0173C22.1025 17.2482 22.3664 17.431 22.6792 17.5657C22.992 17.6939 23.3569 17.7581 23.7739 17.7581C24.1128 17.7581 24.4614 17.6907 24.8198 17.556C25.1782 17.4214 25.504 17.2257 25.7972 16.9692C26.0904 16.7127 26.3283 16.3984 26.5107 16.0265C26.6997 15.6481 26.7942 15.2216 26.7942 14.747V8.23425C26.7942 7.97771 26.8235 7.73401 26.8821 7.50313C26.9473 7.27225 27.0548 7.07023 27.2047 6.89707C27.3546 6.72391 27.5533 6.58602 27.8009 6.48341C28.055 6.38079 28.3711 6.32949 28.749 6.32949C29.127 6.32949 29.4397 6.38079 29.6873 6.48341C29.9415 6.58602 30.1402 6.72391 30.2836 6.89707C30.4334 7.07023 30.5377 7.27225 30.5963 7.50313C30.655 7.73401 30.6843 7.97771 30.6843 8.23425V18.9798Z" stroke="#2D2D2D" mask="url(#path-1-outside-1_660_1341)"/>
<path d="M33.4993 18.2775C33.3168 17.9953 33.2256 17.6811 33.2256 17.3348C33.2256 17.0911 33.268 16.873 33.3527 16.6806C33.4374 16.4818 33.5514 16.3151 33.6948 16.1804C33.8446 16.0393 34.0141 15.9335 34.203 15.8629C34.392 15.786 34.5907 15.7475 34.7993 15.7475C34.9882 15.7475 35.1544 15.7731 35.2977 15.8244C35.4476 15.8693 35.5845 15.9367 35.7083 16.0265C35.8321 16.1098 35.9494 16.2092 36.0601 16.3247C36.1774 16.4337 36.2947 16.5524 36.412 16.6806C36.5749 16.8538 36.7639 17.0173 36.9789 17.1712C37.1939 17.3252 37.435 17.4598 37.7022 17.5753C37.9759 17.6907 38.2724 17.7837 38.5917 17.8543C38.9109 17.9184 39.2563 17.9505 39.6277 17.9505C39.8102 17.9505 40.0285 17.9312 40.2826 17.8927C40.5367 17.8543 40.7778 17.7837 41.0059 17.6811C41.2405 17.5721 41.4392 17.4246 41.6021 17.2386C41.765 17.0526 41.8465 16.8153 41.8465 16.5267C41.8465 16.2445 41.7618 16.0072 41.5923 15.8148C41.4294 15.616 41.1786 15.4428 40.8397 15.2953C40.5074 15.1478 40.0839 15.0131 39.5691 14.8913C39.0608 14.763 38.4613 14.6251 37.7706 14.4776C37.2102 14.3558 36.6596 14.2051 36.1188 14.0255C35.5844 13.8459 35.1055 13.6086 34.682 13.3136C34.2649 13.0122 33.9261 12.637 33.6654 12.1881C33.4113 11.7327 33.2843 11.1716 33.2843 10.5046C33.2843 9.9915 33.3592 9.52974 33.5091 9.11929C33.6654 8.70883 33.8772 8.34648 34.1444 8.03223C34.4115 7.71797 34.7308 7.44861 35.1023 7.22415C35.4737 6.99327 35.8777 6.80728 36.3143 6.66619C36.7508 6.51868 37.2135 6.41286 37.7022 6.34873C38.1909 6.27818 38.6861 6.24291 39.1879 6.24291C39.7222 6.24291 40.2598 6.28138 40.8006 6.35835C41.348 6.42889 41.866 6.54433 42.3547 6.70467C42.8434 6.865 43.2898 7.07343 43.6938 7.32997C44.0978 7.5865 44.4334 7.89755 44.7005 8.26311C44.8048 8.4042 44.883 8.55812 44.9351 8.72487C44.9938 8.89161 45.0231 9.06798 45.0231 9.25397C45.0231 9.43354 44.9873 9.60991 44.9156 9.78307C44.8439 9.95623 44.7429 10.1101 44.6126 10.2448C44.4888 10.3795 44.3389 10.4885 44.163 10.5719C43.987 10.6489 43.7948 10.6873 43.5863 10.6873C43.2474 10.6873 42.9477 10.6104 42.6871 10.4565C42.4329 10.3025 42.1886 10.1294 41.954 9.93699C41.5956 9.64198 41.1721 9.42713 40.6833 9.29245C40.1946 9.15777 39.7059 9.09043 39.2172 9.09043C39.0282 9.09043 38.8132 9.10646 38.5721 9.13853C38.3375 9.17059 38.116 9.23152 37.9075 9.32131C37.6989 9.40468 37.523 9.52333 37.3797 9.67725C37.2428 9.82475 37.1744 10.0139 37.1744 10.2448C37.1744 10.5527 37.2917 10.7964 37.5263 10.976C37.7674 11.1555 38.0834 11.3062 38.4744 11.4281C38.8718 11.5499 39.328 11.6558 39.8428 11.7456C40.3575 11.8353 40.8886 11.9444 41.436 12.0726C42.0094 12.2009 42.5535 12.3644 43.0682 12.5633C43.5895 12.7557 44.0457 13.0058 44.4366 13.3136C44.8341 13.6215 45.1469 13.9998 45.375 14.4488C45.6095 14.8977 45.7268 15.4428 45.7268 16.0842C45.7268 16.6934 45.6421 17.2354 45.4727 17.71C45.3033 18.1845 45.0687 18.5982 44.769 18.9509C44.4692 19.3037 44.1108 19.6019 43.6938 19.8456C43.2833 20.0893 42.8369 20.2881 42.3547 20.442C41.8791 20.5895 41.3741 20.6954 40.8397 20.7595C40.3119 20.83 39.7776 20.8653 39.2368 20.8653C38.6503 20.8653 38.0736 20.8108 37.5067 20.7018C36.9463 20.5992 36.4153 20.442 35.9135 20.2304C35.4183 20.0123 34.9622 19.743 34.5451 19.4223C34.1346 19.0952 33.786 18.7136 33.4993 18.2775Z" stroke="#2D2D2D" mask="url(#path-1-outside-1_660_1341)"/>
<path d="M48.9035 9.23473H48.2388C47.6915 9.23473 47.2972 9.11608 47.0561 8.87879C46.815 8.63508 46.6945 8.30159 46.6945 7.87831C46.6945 7.45503 46.815 7.12474 47.0561 6.88745C47.2972 6.64374 47.6915 6.52189 48.2388 6.52189H48.9035V4.11688C48.9035 3.49479 49.0794 3.02341 49.4313 2.70274C49.7897 2.37566 50.2621 2.21212 50.8485 2.21212C51.4285 2.21212 51.8944 2.37566 52.2462 2.70274C52.6046 3.02341 52.7838 3.49479 52.7838 4.11688V6.52189H53.9567C54.5302 6.52189 54.9635 6.63412 55.2567 6.85859C55.5564 7.07664 55.7063 7.41655 55.7063 7.87831C55.7063 8.34007 55.5564 8.68318 55.2567 8.90765C54.9635 9.1257 54.5302 9.23473 53.9567 9.23473H52.7838V16.5652C52.7838 17.1552 53.1227 17.4502 53.8003 17.4502H54.3575C54.5725 17.4502 54.7615 17.4887 54.9244 17.5657C55.0938 17.6426 55.2339 17.7484 55.3447 17.8831C55.462 18.0178 55.5499 18.1749 55.6086 18.3545C55.6737 18.5341 55.7063 18.7265 55.7063 18.9317C55.7063 19.4832 55.4717 19.9194 55.0026 20.24C54.5334 20.5607 53.8297 20.721 52.8913 20.721C52.1876 20.721 51.5816 20.6505 51.0733 20.5094C50.5716 20.3683 50.1578 20.1566 49.832 19.8745C49.5127 19.5859 49.2781 19.2299 49.1283 18.8066C48.9784 18.3834 48.9035 17.8895 48.9035 17.3252V9.23473Z" stroke="#2D2D2D" mask="url(#path-1-outside-1_660_1341)"/>
<path d="M56.3123 13.5349C56.3123 12.419 56.4915 11.4024 56.8499 10.4853C57.2148 9.56822 57.7231 8.78259 58.3747 8.12843C59.0328 7.47427 59.8115 6.96761 60.7107 6.60847C61.6165 6.24932 62.6134 6.06975 63.7016 6.06975C64.4314 6.06975 65.1222 6.15312 65.7738 6.31987C66.4254 6.4802 67.0249 6.71429 67.5722 7.02213C68.1261 7.32355 68.6213 7.69553 69.0579 8.13805C69.501 8.57415 69.8757 9.06798 70.1819 9.61953C70.4947 10.1711 70.7326 10.7771 70.8955 11.4377C71.0584 12.0919 71.1398 12.7909 71.1398 13.5349C71.1398 14.2788 71.0584 14.9811 70.8955 15.6417C70.7326 16.2958 70.4947 16.8987 70.1819 17.4502C69.8757 18.0018 69.501 18.4988 69.0579 18.9413C68.6213 19.3774 68.1261 19.7494 67.5722 20.0572C67.0249 20.3587 66.4254 20.5895 65.7738 20.7499C65.1222 20.9166 64.4314 21 63.7016 21C62.6134 21 61.6165 20.8204 60.7107 20.4613C59.8115 20.1021 59.0328 19.5955 58.3747 18.9413C57.7231 18.2872 57.2148 17.5015 56.8499 16.5844C56.4915 15.6673 56.3123 14.6508 56.3123 13.5349ZM60.2318 13.5349C60.2318 14.0928 60.2872 14.6412 60.3979 15.1799C60.5152 15.7186 60.7075 16.1964 60.9746 16.6133C61.2418 17.0301 61.5969 17.3668 62.04 17.6234C62.4896 17.8799 63.0435 18.0082 63.7016 18.0082C64.3728 18.0082 64.9364 17.8799 65.3926 17.6234C65.8487 17.3668 66.2136 17.0301 66.4873 16.6133C66.7675 16.1964 66.9662 15.7186 67.0835 15.1799C67.2008 14.6412 67.2594 14.0928 67.2594 13.5349C67.2594 12.9769 67.1943 12.4286 67.064 11.8899C66.9401 11.3511 66.7349 10.8733 66.4482 10.4565C66.168 10.0396 65.7998 9.7029 65.3437 9.44637C64.8941 9.18983 64.3467 9.06157 63.7016 9.06157C63.063 9.06157 62.5222 9.18983 62.0791 9.44637C61.6425 9.7029 61.2874 10.0396 61.0137 10.4565C60.74 10.8733 60.5413 11.3511 60.4175 11.8899C60.2937 12.4286 60.2318 12.9769 60.2318 13.5349Z" stroke="#2D2D2D" mask="url(#path-1-outside-1_660_1341)"/>
<path d="M73.1729 8.17653C73.1729 7.59291 73.3325 7.12474 73.6518 6.77201C73.9776 6.41927 74.4272 6.24291 75.0006 6.24291C75.5741 6.24291 76.0237 6.41927 76.3495 6.77201C76.6753 7.12474 76.8382 7.59291 76.8382 8.17653V8.58057H76.8968C77.4051 7.81097 78.0632 7.23056 78.8712 6.83935C79.6792 6.44172 80.5785 6.24291 81.5689 6.24291C81.9012 6.24291 82.2466 6.2878 82.605 6.37759C82.9634 6.46096 83.3087 6.59885 83.641 6.79125C83.9734 6.98365 84.2796 7.23697 84.5598 7.55123C84.84 7.85907 85.0681 8.24066 85.244 8.69601C85.5177 8.31762 85.8142 7.97771 86.1335 7.67629C86.4528 7.37486 86.8014 7.11833 87.1793 6.90669C87.5572 6.69505 87.9678 6.53151 88.4109 6.41607C88.854 6.30063 89.3394 6.24291 89.8672 6.24291C90.5384 6.24291 91.177 6.32628 91.783 6.49303C92.389 6.65336 92.92 6.91951 93.3762 7.29149C93.8323 7.65705 94.1939 8.13805 94.4611 8.73449C94.7348 9.33093 94.8716 10.062 94.8716 10.9278V18.7874C94.8716 19.0439 94.839 19.2908 94.7739 19.5281C94.7152 19.759 94.611 19.9642 94.4611 20.1438C94.3177 20.317 94.119 20.4549 93.8649 20.5575C93.6173 20.6601 93.3045 20.7114 92.9266 20.7114C92.5486 20.7114 92.2326 20.6601 91.9785 20.5575C91.7308 20.4549 91.5321 20.317 91.3822 20.1438C91.2389 19.9642 91.1379 19.759 91.0792 19.5281C91.0206 19.2908 90.9913 19.0439 90.9913 18.7874V11.8514C90.9913 11.5051 90.9424 11.1748 90.8446 10.8605C90.7469 10.5463 90.6003 10.2673 90.4048 10.0236C90.2158 9.77986 89.978 9.58746 89.6913 9.44637C89.4046 9.29886 89.0722 9.22511 88.6943 9.22511C88.3229 9.22511 87.971 9.30848 87.6387 9.47523C87.3064 9.63556 87.0164 9.86003 86.7688 10.1486C86.5212 10.4308 86.3224 10.7675 86.1726 11.1587C86.0292 11.5435 85.9575 11.9604 85.9575 12.4093V18.7874C85.9575 19.0439 85.9249 19.2908 85.8598 19.5281C85.8011 19.759 85.6969 19.9642 85.547 20.1438C85.4037 20.317 85.2049 20.4549 84.9508 20.5575C84.7032 20.6601 84.3904 20.7114 84.0125 20.7114C83.6345 20.7114 83.3185 20.6601 83.0644 20.5575C82.8167 20.4549 82.618 20.317 82.4681 20.1438C82.3248 19.9642 82.2238 19.759 82.1651 19.5281C82.1065 19.2908 82.0772 19.0439 82.0772 18.7874V11.8514C82.0772 11.5051 82.0315 11.1748 81.9403 10.8605C81.8556 10.5463 81.722 10.2673 81.5396 10.0236C81.3571 9.77986 81.1258 9.58746 80.8456 9.44637C80.5719 9.29886 80.2461 9.22511 79.8682 9.22511C79.4968 9.22511 79.1416 9.30848 78.8028 9.47523C78.464 9.63556 78.1642 9.86003 77.9036 10.1486C77.6429 10.4308 77.4344 10.7675 77.278 11.1587C77.1282 11.5435 77.0532 11.9604 77.0532 12.4093V18.7874C77.0532 19.0439 77.0206 19.2908 76.9555 19.5281C76.8968 19.759 76.7926 19.9642 76.6427 20.1438C76.4993 20.317 76.3006 20.4549 76.0465 20.5575C75.7989 20.6601 75.4861 20.7114 75.1081 20.7114C74.7302 20.7114 74.4142 20.6601 74.16 20.5575C73.9124 20.4549 73.7137 20.317 73.5638 20.1438C73.4205 19.9642 73.3195 19.759 73.2608 19.5281C73.2022 19.2908 73.1729 19.0439 73.1729 18.7874V8.17653Z" stroke="#2D2D2D" mask="url(#path-1-outside-1_660_1341)"/>
</g>
</svg>
